<svg width="24" height="24" viewBox="0 0 24 24" fill="none" xmlns="http://www.w3.org/2000/svg">
<g clip-path="url(#clip0_1772_3866)">
<path d="M11 21C15.9706 21 20 16.9706 20 12C20 7.02944 15.9706 3 11 3C6.02944 3 2 7.02944 2 12C2 16.9706 6.02944 21 11 21Z" stroke="#242625" stroke-width="1.5" stroke-linecap="round" stroke-linejoin="round"/>
<path d="M11 13C11.5523 13 12 12.5523 12 12C12 11.4477 11.5523 11 11 11C10.4477 11 10 11.4477 10 12C10 12.5523 10.4477 13 11 13Z" stroke="#242625" stroke-width="1.5" stroke-linecap="round" stroke-linejoin="round"/>
<path d="M12.4099 10.59L14.9999 8" stroke="#242625" stroke-width="1.5" stroke-linecap="round" stroke-linejoin="round"/>
<path d="M6 12C6 10.6739 6.52678 9.40215 7.46447 8.46447C8.40215 7.52678 9.67392 7 11 7" stroke="#242625" stroke-width="1.5" stroke-linecap="round" stroke-linejoin="round"/>
</g>
<defs>
<clipPath id="clip0_1772_3866">
<rect width="24" height="24" fill="white"/>
</clipPath>
</defs>
</svg>
