<svg width="16" height="16" viewBox="0 0 16 16" fill="none" xmlns="http://www.w3.org/2000/svg">
<path d="M13.855 4.64501C13.9013 4.69173 13.938 4.74714 13.9629 4.80806C13.9878 4.86897 14.0004 4.93421 14 5.00001V13C14 13.2652 13.8946 13.5196 13.7071 13.7071C13.5196 13.8947 13.2652 14 13 14H3C2.73478 14 2.48043 13.8947 2.29289 13.7071C2.10536 13.5196 2 13.2652 2 13V3.00001C2 2.73479 2.10536 2.48044 2.29289 2.2929C2.48043 2.10537 2.73478 2.00001 3 2.00001H10.5V2.50001L11 2.50002L11.0021 2.5M13.855 4.64501L13.5049 4.99513L13.5029 4.99713L13.5014 4.99856L13.5 4.99712M13.855 4.64501L13.5 4.99712M13.855 4.64501L11.0029 2.5M11.0021 2.5L11.3536 2.85145L13.3536 4.85145L13.5 4.9979V4.99712M11.0021 2.5L11.0029 2.5M11.0021 2.5L11 2.4979L10.5021 2.00001L11.0029 2.5M13.5 4.99712L11.0029 2.5M11.0029 2.5L11.3548 2.14517L11.0049 2.49512L11.0029 2.49713L11.0014 2.49856L11.0029 2.5Z" fill="black" stroke="white"/>
</svg>
