<svg width="140" height="25" viewBox="0 0 140 25" fill="none" xmlns="http://www.w3.org/2000/svg">
<path d="M6.16121 22.2908C7.32098 22.2908 8.24005 22.0059 8.91841 21.4362C9.61865 20.8445 10.1329 20.1762 10.4611 19.4311V16.3085H9.01688C6.89427 16.3085 5.3625 16.5386 4.42155 16.9988C3.50248 17.437 3.04295 18.2916 3.04295 19.5626C3.04295 20.461 3.34931 21.1403 3.96202 21.6005C4.59661 22.0607 5.32967 22.2908 6.16121 22.2908ZM10.9863 24C10.8988 23.6932 10.8222 23.3316 10.7565 22.9153C10.6909 22.4989 10.6362 22.0497 10.5924 21.5676C10.3955 21.8963 10.1548 22.225 9.87029 22.5537C9.60771 22.8824 9.27947 23.1783 8.88558 23.4412C8.4917 23.7042 8.02122 23.9123 7.47416 24.0657C6.9271 24.241 6.2925 24.3287 5.57038 24.3287C4.84826 24.3287 4.1699 24.2301 3.53531 24.0329C2.90071 23.8356 2.33177 23.5398 1.82847 23.1454C1.34706 22.7509 0.964111 22.2689 0.679639 21.6991C0.395166 21.1294 0.25293 20.472 0.25293 19.7269C0.25293 17.9301 0.964112 16.6263 2.38648 15.8155C3.83072 14.9828 5.95333 14.5664 8.75429 14.5664H10.4611V13.2188C10.4611 11.8821 10.1767 10.885 9.60771 10.2276C9.03876 9.57025 8.03216 9.24156 6.58792 9.24156C5.6032 9.24156 4.70602 9.42782 3.89637 9.80034C3.1086 10.1509 2.40836 10.5783 1.79565 11.0823L1.0407 8.78138C1.30329 8.58416 1.64247 8.38695 2.05824 8.18973C2.474 7.99251 2.94448 7.81721 3.46966 7.66382C3.99484 7.51043 4.55284 7.3899 5.14367 7.30225C5.7345 7.19269 6.33627 7.1379 6.94898 7.1379C9.02782 7.1379 10.5924 7.59808 11.6428 8.51842C12.715 9.41686 13.2511 10.8522 13.2511 12.8243V21.3376C13.2511 21.7101 13.273 22.1812 13.3168 22.7509C13.3606 23.2988 13.4153 23.7151 13.4809 24H10.9863Z" fill="#494C4C"/>
<path d="M24.6066 10.0962C24.0377 10.0523 23.4797 10.0962 22.9326 10.2276C22.3856 10.3591 21.8713 10.5673 21.3899 10.8522C20.9304 11.137 20.5037 11.4876 20.1098 11.904C19.7378 12.3203 19.4424 12.7805 19.2235 13.2845V24H16.4335V7.4666H18.8953L19.1579 11.0494H19.2235C19.4424 10.5673 19.7159 10.1071 20.0441 9.66886C20.3942 9.20869 20.7881 8.81425 21.2258 8.48555C21.6853 8.13495 22.1886 7.85008 22.7357 7.63095C23.3046 7.41182 23.9283 7.30225 24.6066 7.30225V10.0962Z" fill="#494C4C"/>
<path d="M25.6396 24V21.732L35.0928 9.37303H25.9021V7.4666H37.6531V9.93182L28.3967 22.0936H37.6859V24H25.6396Z" fill="#494C4C"/>
<path d="M46.3778 24.3287C45.3055 24.3287 44.288 24.1424 43.3252 23.7699C42.3623 23.3755 41.5198 22.8167 40.7977 22.0936C40.0756 21.3485 39.4957 20.4501 39.0581 19.3983C38.6423 18.3245 38.4344 17.0974 38.4344 15.7169C38.4344 14.3363 38.6423 13.1202 39.0581 12.0683C39.4957 10.9946 40.0756 10.0962 40.7977 9.37303C41.5198 8.6499 42.3623 8.10208 43.3252 7.72956C44.288 7.33512 45.3055 7.1379 46.3778 7.1379C47.45 7.1379 48.4675 7.33512 49.4304 7.72956C50.4151 8.10208 51.2685 8.6499 51.9906 9.37303C52.7346 10.0962 53.3255 10.9946 53.7631 12.0683C54.2008 13.1202 54.4196 14.3363 54.4196 15.7169C54.4196 17.0974 54.2008 18.3245 53.7631 19.3983C53.3255 20.4501 52.7346 21.3485 51.9906 22.0936C51.2685 22.8167 50.4151 23.3755 49.4304 23.7699C48.4675 24.1424 47.45 24.3287 46.3778 24.3287ZM46.3778 22.2579C47.0342 22.2579 47.6688 22.1483 48.2815 21.9292C48.9161 21.6882 49.4741 21.3047 49.9556 20.7788C50.437 20.2529 50.8199 19.5736 51.1044 18.7409C51.4107 17.9082 51.5639 16.9002 51.5639 15.7169C51.5639 14.5336 51.4107 13.5365 51.1044 12.7257C50.8199 11.893 50.437 11.2137 49.9556 10.6878C49.4741 10.1619 48.9161 9.78938 48.2815 9.57025C47.6688 9.32921 47.0342 9.20869 46.3778 9.20869C45.7213 9.20869 45.0867 9.32921 44.474 9.57025C43.8832 9.78938 43.347 10.1619 42.8656 10.6878C42.3842 11.2137 42.0013 11.893 41.7168 12.7257C41.4323 13.5365 41.2901 14.5336 41.2901 15.7169C41.2901 16.9002 41.4323 17.9082 41.7168 18.7409C42.0013 19.5736 42.3842 20.2529 42.8656 20.7788C43.347 21.3047 43.8832 21.6882 44.474 21.9292C45.0867 22.1483 45.7213 22.2579 46.3778 22.2579Z" fill="#494C4C"/>
<path d="M64.606 9.37303C63.3368 9.37303 62.3083 9.67982 61.5206 10.2934C60.7328 10.9069 60.0872 11.6739 59.584 12.5943V24H56.7939V7.4666H59.4198L59.5183 10.4249H59.584C60.0216 9.4826 60.7218 8.70469 61.6847 8.09112C62.6475 7.45564 63.862 7.1379 65.3281 7.1379C66.9693 7.1379 68.2713 7.57616 69.2341 8.45269C70.197 9.30729 70.6784 10.6221 70.6784 12.397V24H67.8555V12.5285C67.8555 11.3452 67.5711 10.5235 67.0021 10.0633C66.4332 9.60312 65.6345 9.37303 64.606 9.37303Z" fill="#494C4C"/>
<path d="M81.7915 24.3287C80.2598 24.3287 78.9359 23.9342 77.8199 23.1454C76.7257 22.3346 75.9161 21.2061 75.3909 19.7598L75.2268 24H74.2093V0.169556H75.4237V11.6082C75.9708 10.1838 76.7914 9.08816 77.8855 8.32121C78.9796 7.53234 80.2926 7.1379 81.8244 7.1379C82.8528 7.1379 83.8157 7.32416 84.7129 7.69669C85.61 8.06921 86.3869 8.62799 87.0433 9.37303C87.7217 10.0962 88.2469 10.9946 88.6189 12.0683C89.0128 13.1202 89.2097 14.3363 89.2097 15.7169C89.2097 17.0974 89.0128 18.3245 88.6189 19.3983C88.2469 20.472 87.7217 21.3704 87.0433 22.0936C86.3869 22.8167 85.5991 23.3755 84.68 23.7699C83.7829 24.1424 82.82 24.3287 81.7915 24.3287ZM81.6931 23.4083C82.5902 23.4083 83.4218 23.244 84.1877 22.9153C84.9536 22.5866 85.61 22.1045 86.1571 21.469C86.726 20.8116 87.1637 20.0009 87.4701 19.0367C87.7983 18.0725 87.9624 16.9659 87.9624 15.7169C87.9624 14.4678 87.7983 13.3612 87.4701 12.397C87.1637 11.4329 86.726 10.633 86.1571 9.99755C85.61 9.36208 84.9536 8.87999 84.1877 8.55129C83.4218 8.2226 82.5902 8.05825 81.6931 8.05825C80.7959 8.05825 79.9643 8.2226 79.1985 8.55129C78.4326 8.87999 77.7652 9.36208 77.1962 9.99755C76.6491 10.633 76.2115 11.4329 75.8833 12.397C75.5769 13.3612 75.4237 14.4678 75.4237 15.7169C75.4237 16.9659 75.5769 18.0725 75.8833 19.0367C76.2115 20.0009 76.6491 20.8116 77.1962 21.469C77.7652 22.1045 78.4326 22.5866 79.1985 22.9153C79.9643 23.244 80.7959 23.4083 81.6931 23.4083Z" fill="#707373"/>
<path d="M92.6885 3.78521C92.3822 3.78521 92.1305 3.6866 91.9336 3.48938C91.7585 3.27025 91.671 3.02921 91.671 2.76625C91.671 2.50329 91.7585 2.27321 91.9336 2.07599C92.1305 1.85686 92.3822 1.74729 92.6885 1.74729C92.9949 1.74729 93.2356 1.85686 93.4106 2.07599C93.5857 2.27321 93.6732 2.50329 93.6732 2.76625C93.6732 3.02921 93.5857 3.27025 93.4106 3.48938C93.2356 3.6866 92.9949 3.78521 92.6885 3.78521ZM93.2793 7.4666V24H92.0649V7.4666H93.2793Z" fill="#707373"/>
<path d="M95.7796 24V23.3097L105.725 8.38695H96.0422V7.4666H107.268V8.15686L97.3223 23.0796H107.301V24H95.7796Z" fill="#707373"/>
<path d="M116.132 23.4083C117.029 23.4083 117.86 23.244 118.626 22.9153C119.414 22.5647 120.081 22.0716 120.628 21.4362C121.197 20.7788 121.635 19.9789 121.941 19.0367C122.27 18.0725 122.434 16.9659 122.434 15.7169C122.434 14.4678 122.27 13.3722 121.941 12.4299C121.635 11.4657 121.197 10.6659 120.628 10.0304C120.081 9.37303 119.414 8.87999 118.626 8.55129C117.86 8.2226 117.029 8.05825 116.132 8.05825C115.234 8.05825 114.392 8.2226 113.604 8.55129C112.838 8.87999 112.171 9.37303 111.602 10.0304C111.055 10.6659 110.617 11.4657 110.289 12.4299C109.983 13.3722 109.829 14.4678 109.829 15.7169C109.829 16.9659 109.983 18.0725 110.289 19.0367C110.617 19.9789 111.055 20.7788 111.602 21.4362C112.171 22.0716 112.838 22.5647 113.604 22.9153C114.392 23.244 115.234 23.4083 116.132 23.4083ZM122.434 19.6941C121.909 21.1403 121.099 22.2798 120.005 23.1125C118.911 23.9233 117.576 24.3287 116 24.3287C114.972 24.3287 114.009 24.1424 113.112 23.7699C112.215 23.3755 111.427 22.8167 110.749 22.0936C110.092 21.3704 109.567 20.472 109.173 19.3983C108.801 18.3245 108.615 17.0974 108.615 15.7169C108.615 14.3363 108.801 13.1202 109.173 12.0683C109.567 10.9946 110.092 10.0962 110.749 9.37303C111.427 8.62799 112.215 8.06921 113.112 7.69669C114.009 7.32416 114.972 7.1379 116 7.1379C117.532 7.1379 118.845 7.52138 119.939 8.28834C121.055 9.03338 121.876 10.1181 122.401 11.5424V0.169556H123.615V24H122.565L122.434 19.6941Z" fill="#707373"/>
<path d="M132.244 23.3755C133.053 23.3755 133.754 23.244 134.344 22.981C134.957 22.7181 135.471 22.3894 135.887 21.9949C136.303 21.6005 136.642 21.1842 136.905 20.7459C137.189 20.2857 137.408 19.8694 137.561 19.4969V15.2567H134.41C132.156 15.2567 130.493 15.5963 129.421 16.2756C128.371 16.9549 127.845 18.0068 127.845 19.4311C127.845 20.7021 128.217 21.6772 128.961 22.3565C129.727 23.0358 130.821 23.3755 132.244 23.3755ZM137.955 24C137.846 23.6494 137.758 23.2221 137.692 22.7181C137.627 22.2141 137.594 21.6115 137.594 20.9103C137.397 21.3047 137.145 21.7101 136.839 22.1264C136.555 22.5209 136.194 22.8824 135.756 23.2111C135.318 23.5398 134.793 23.8028 134.18 24C133.59 24.2191 132.889 24.3287 132.08 24.3287C130.395 24.3287 129.06 23.9123 128.075 23.0796C127.112 22.225 126.631 21.0198 126.631 19.464C126.631 17.7986 127.276 16.5386 128.567 15.684C129.88 14.8294 131.795 14.4021 134.312 14.4021H137.561V12.397C137.561 10.9069 137.189 9.82225 136.445 9.14295C135.701 8.46364 134.552 8.12399 132.999 8.12399C131.839 8.12399 130.843 8.28834 130.012 8.61703C129.18 8.92382 128.458 9.31825 127.845 9.80034L127.353 8.78138C127.856 8.43077 128.589 8.06921 129.552 7.69669C130.537 7.32416 131.719 7.1379 133.097 7.1379C134.913 7.1379 136.314 7.55425 137.299 8.38695C138.283 9.21964 138.776 10.5125 138.776 12.2656V20.8774C138.776 21.4909 138.798 22.0826 138.841 22.6523C138.885 23.2002 138.962 23.6494 139.071 24H137.955Z" fill="#707373"/>
</svg>
